<?xml version="1.0" encoding="UTF-8" standalone="no"?>
<!DOCTYPE svg PUBLIC "-//W3C//DTD SVG 1.1//EN"
 "http://www.w3.org/Graphics/SVG/1.1/DTD/svg11.dtd">
<!-- Generated by graphviz version 2.40.1 (20161225.0304)
 -->
<!-- Title: controllers_diagram Pages: 1 -->
<svg width="453pt" height="486pt"
 viewBox="0.00 0.00 453.38 486.00" xmlns="http://www.w3.org/2000/svg" xmlns:xlink="http://www.w3.org/1999/xlink">
<g id="graph0" class="graph" transform="scale(1 1) rotate(0) translate(4 482)">
<title>controllers_diagram</title>
<polygon fill="transparent" stroke="transparent" points="-4,4 -4,-482 449.3755,-482 449.3755,4 -4,4"/>
<!-- _diagram_info -->
<g id="node1" class="node">
<title>_diagram_info</title>
<text text-anchor="start" x="246" y="-415.6" font-family="Times,serif" font-size="13.00" fill="#000000">Controllers diagram</text>
<text text-anchor="start" x="246" y="-402.6" font-family="Times,serif" font-size="13.00" fill="#000000">Date: Jan 09 2017 &#45; 01:52</text>
<text text-anchor="start" x="246" y="-389.6" font-family="Times,serif" font-size="13.00" fill="#000000">Migration version: 20170109000655</text>
<text text-anchor="start" x="246" y="-376.6" font-family="Times,serif" font-size="13.00" fill="#000000">Generated by RailRoady 1.5.2</text>
<text text-anchor="start" x="246" y="-363.6" font-family="Times,serif" font-size="13.00" fill="#000000">http://railroady.prestonlee.com</text>
</g>
<!-- ApplicationController -->
<g id="node2" class="node">
<title>ApplicationController</title>
<path fill="none" stroke="#000000" d="M182,-.5C182,-.5 297.6416,-.5 297.6416,-.5 303.6416,-.5 309.6416,-6.5 309.6416,-12.5 309.6416,-12.5 309.6416,-80.5 309.6416,-80.5 309.6416,-86.5 303.6416,-92.5 297.6416,-92.5 297.6416,-92.5 182,-92.5 182,-92.5 176,-92.5 170,-86.5 170,-80.5 170,-80.5 170,-12.5 170,-12.5 170,-6.5 176,-.5 182,-.5"/>
<text text-anchor="middle" x="239.8208" y="-77.3" font-family="Times,serif" font-size="14.00" fill="#000000">ApplicationController</text>
<polyline fill="none" stroke="#000000" points="170,-70.5 309.6416,-70.5 "/>
<polyline fill="none" stroke="#000000" points="170,-46.5 309.6416,-46.5 "/>
<polyline fill="none" stroke="#000000" points="170,-22.5 309.6416,-22.5 "/>
<text text-anchor="start" x="178" y="-7.3" font-family="Times,serif" font-size="14.00" fill="#000000">_layout</text>
</g>
<!-- GamesController -->
<g id="node3" class="node">
<title>GamesController</title>
<path fill="none" stroke="#000000" d="M182,-119.5C182,-119.5 270.4209,-119.5 270.4209,-119.5 276.4209,-119.5 282.4209,-125.5 282.4209,-131.5 282.4209,-131.5 282.4209,-309.5 282.4209,-309.5 282.4209,-315.5 276.4209,-321.5 270.4209,-321.5 270.4209,-321.5 182,-321.5 182,-321.5 176,-321.5 170,-315.5 170,-309.5 170,-309.5 170,-131.5 170,-131.5 170,-125.5 176,-119.5 182,-119.5"/>
<text text-anchor="middle" x="226.2104" y="-306.3" font-family="Times,serif" font-size="14.00" fill="#000000">GamesController</text>
<polyline fill="none" stroke="#000000" points="170,-299.5 282.4209,-299.5 "/>
<text text-anchor="start" x="178" y="-284.3" font-family="Times,serif" font-size="14.00" fill="#000000">update</text>
<text text-anchor="start" x="178" y="-270.3" font-family="Times,serif" font-size="14.00" fill="#000000">destroy</text>
<text text-anchor="start" x="178" y="-256.3" font-family="Times,serif" font-size="14.00" fill="#000000">edit</text>
<text text-anchor="start" x="178" y="-242.3" font-family="Times,serif" font-size="14.00" fill="#000000">index</text>
<text text-anchor="start" x="178" y="-228.3" font-family="Times,serif" font-size="14.00" fill="#000000">new</text>
<text text-anchor="start" x="178" y="-214.3" font-family="Times,serif" font-size="14.00" fill="#000000">set_rentals</text>
<text text-anchor="start" x="178" y="-200.3" font-family="Times,serif" font-size="14.00" fill="#000000">show</text>
<text text-anchor="start" x="178" y="-186.3" font-family="Times,serif" font-size="14.00" fill="#000000">create</text>
<polyline fill="none" stroke="#000000" points="170,-179.5 282.4209,-179.5 "/>
<polyline fill="none" stroke="#000000" points="170,-155.5 282.4209,-155.5 "/>
<text text-anchor="start" x="178" y="-140.3" font-family="Times,serif" font-size="14.00" fill="#000000">_layout</text>
<text text-anchor="start" x="178" y="-126.3" font-family="Times,serif" font-size="14.00" fill="#000000">game_params</text>
</g>
<!-- RegistrationsController -->
<g id="node4" class="node">
<title>RegistrationsController</title>
<path fill="none" stroke="#000000" d="M63,-357.5C63,-357.5 190.2764,-357.5 190.2764,-357.5 196.2764,-357.5 202.2764,-363.5 202.2764,-369.5 202.2764,-369.5 202.2764,-465.5 202.2764,-465.5 202.2764,-471.5 196.2764,-477.5 190.2764,-477.5 190.2764,-477.5 63,-477.5 63,-477.5 57,-477.5 51,-471.5 51,-465.5 51,-465.5 51,-369.5 51,-369.5 51,-363.5 57,-357.5 63,-357.5"/>
<text text-anchor="middle" x="126.6382" y="-462.3" font-family="Times,serif" font-size="14.00" fill="#000000">RegistrationsController</text>
<polyline fill="none" stroke="#000000" points="51,-455.5 202.2764,-455.5 "/>
<polyline fill="none" stroke="#000000" points="51,-431.5 202.2764,-431.5 "/>
<polyline fill="none" stroke="#000000" points="51,-407.5 202.2764,-407.5 "/>
<text text-anchor="start" x="59" y="-392.3" font-family="Times,serif" font-size="14.00" fill="#000000">_layout</text>
<text text-anchor="start" x="59" y="-378.3" font-family="Times,serif" font-size="14.00" fill="#000000">account_update_params</text>
<text text-anchor="start" x="59" y="-364.3" font-family="Times,serif" font-size="14.00" fill="#000000">sign_up_params</text>
</g>
<!-- RentalsController -->
<g id="node5" class="node">
<title>RentalsController</title>
<path fill="none" stroke="#000000" d="M12,-85.5C12,-85.5 129.9385,-85.5 129.9385,-85.5 135.9385,-85.5 141.9385,-91.5 141.9385,-97.5 141.9385,-97.5 141.9385,-303.5 141.9385,-303.5 141.9385,-309.5 135.9385,-315.5 129.9385,-315.5 129.9385,-315.5 12,-315.5 12,-315.5 6,-315.5 0,-309.5 0,-303.5 0,-303.5 0,-97.5 0,-97.5 0,-91.5 6,-85.5 12,-85.5"/>
<text text-anchor="middle" x="70.9692" y="-300.3" font-family="Times,serif" font-size="14.00" fill="#000000">RentalsController</text>
<polyline fill="none" stroke="#000000" points="0,-293.5 141.9385,-293.5 "/>
<text text-anchor="start" x="8" y="-278.3" font-family="Times,serif" font-size="14.00" fill="#000000">update</text>
<text text-anchor="start" x="8" y="-264.3" font-family="Times,serif" font-size="14.00" fill="#000000">destroy</text>
<text text-anchor="start" x="8" y="-250.3" font-family="Times,serif" font-size="14.00" fill="#000000">edit</text>
<text text-anchor="start" x="8" y="-236.3" font-family="Times,serif" font-size="14.00" fill="#000000">index</text>
<text text-anchor="start" x="8" y="-222.3" font-family="Times,serif" font-size="14.00" fill="#000000">my_rentals</text>
<text text-anchor="start" x="8" y="-208.3" font-family="Times,serif" font-size="14.00" fill="#000000">new</text>
<text text-anchor="start" x="8" y="-194.3" font-family="Times,serif" font-size="14.00" fill="#000000">show</text>
<text text-anchor="start" x="8" y="-180.3" font-family="Times,serif" font-size="14.00" fill="#000000">create</text>
<polyline fill="none" stroke="#000000" points="0,-173.5 141.9385,-173.5 "/>
<polyline fill="none" stroke="#000000" points="0,-149.5 141.9385,-149.5 "/>
<text text-anchor="start" x="8" y="-134.3" font-family="Times,serif" font-size="14.00" fill="#000000">_layout</text>
<text text-anchor="start" x="8" y="-120.3" font-family="Times,serif" font-size="14.00" fill="#000000">has_guaranteed_rental</text>
<text text-anchor="start" x="8" y="-106.3" font-family="Times,serif" font-size="14.00" fill="#000000">rental_params</text>
<text text-anchor="start" x="8" y="-92.3" font-family="Times,serif" font-size="14.00" fill="#000000">set_rental</text>
</g>
</g>
</svg>
