<?xml version="1.0" encoding="UTF-8" standalone="no"?>
<!DOCTYPE svg PUBLIC "-//W3C//DTD SVG 1.1//EN"
 "http://www.w3.org/Graphics/SVG/1.1/DTD/svg11.dtd">
<!-- Generated by graphviz version 2.40.1 (20161225.0304)
 -->
<!-- Title: models_diagram Pages: 1 -->
<svg width="782pt" height="456pt"
 viewBox="0.00 0.00 781.97 456.00" xmlns="http://www.w3.org/2000/svg" xmlns:xlink="http://www.w3.org/1999/xlink">
<g id="graph0" class="graph" transform="scale(1 1) rotate(0) translate(4 452)">
<title>models_diagram</title>
<polygon fill="transparent" stroke="transparent" points="-4,4 -4,-452 777.9656,-452 777.9656,4 -4,4"/>
<!-- _diagram_info -->
<g id="node1" class="node">
<title>_diagram_info</title>
<text text-anchor="start" x="8" y="-349.6" font-family="Times,serif" font-size="13.00" fill="#000000">Models diagram</text>
<text text-anchor="start" x="8" y="-336.6" font-family="Times,serif" font-size="13.00" fill="#000000">Date: Jan 09 2017 &#45; 01:52</text>
<text text-anchor="start" x="8" y="-323.6" font-family="Times,serif" font-size="13.00" fill="#000000">Migration version: 20170109000655</text>
<text text-anchor="start" x="8" y="-310.6" font-family="Times,serif" font-size="13.00" fill="#000000">Generated by RailRoady 1.5.2</text>
<text text-anchor="start" x="8" y="-297.6" font-family="Times,serif" font-size="13.00" fill="#000000">http://railroady.prestonlee.com</text>
</g>
<!-- ApplicationRecord -->
<g id="node2" class="node">
<title>ApplicationRecord</title>
<ellipse fill="none" stroke="#000000" cx="302.6877" cy="-327.5" rx="77.2916" ry="18"/>
<text text-anchor="middle" x="302.6877" y="-323.3" font-family="Times,serif" font-size="14.00" fill="#000000">ApplicationRecord</text>
</g>
<!-- Game -->
<g id="node3" class="node">
<title>Game</title>
<path fill="none" stroke="#000000" d="M410.4651,-214.5C410.4651,-214.5 538.9104,-214.5 538.9104,-214.5 544.9104,-214.5 550.9104,-220.5 550.9104,-226.5 550.9104,-226.5 550.9104,-428.5 550.9104,-428.5 550.9104,-434.5 544.9104,-440.5 538.9104,-440.5 538.9104,-440.5 410.4651,-440.5 410.4651,-440.5 404.4651,-440.5 398.4651,-434.5 398.4651,-428.5 398.4651,-428.5 398.4651,-226.5 398.4651,-226.5 398.4651,-220.5 404.4651,-214.5 410.4651,-214.5"/>
<text text-anchor="middle" x="474.6877" y="-425.3" font-family="Times,serif" font-size="14.00" fill="#000000">Game</text>
<polyline fill="none" stroke="#000000" points="398.4651,-418.5 550.9104,-418.5 "/>
<text text-anchor="start" x="406.4651" y="-403.3" font-family="Times,serif" font-size="14.00" fill="#000000">is_deleted :integer</text>
<text text-anchor="start" x="406.4651" y="-389.3" font-family="Times,serif" font-size="14.00" fill="#000000">title :varchar</text>
<text text-anchor="start" x="406.4651" y="-375.3" font-family="Times,serif" font-size="14.00" fill="#000000">min_players :integer</text>
<text text-anchor="start" x="406.4651" y="-361.3" font-family="Times,serif" font-size="14.00" fill="#000000">max_players :integer</text>
<text text-anchor="start" x="406.4651" y="-347.3" font-family="Times,serif" font-size="14.00" fill="#000000">min_player_age :integer</text>
<text text-anchor="start" x="406.4651" y="-333.3" font-family="Times,serif" font-size="14.00" fill="#000000">playing_time :integer</text>
<text text-anchor="start" x="406.4651" y="-319.3" font-family="Times,serif" font-size="14.00" fill="#000000">complexity :float</text>
<text text-anchor="start" x="406.4651" y="-305.3" font-family="Times,serif" font-size="14.00" fill="#000000">location :varchar</text>
<text text-anchor="start" x="406.4651" y="-291.3" font-family="Times,serif" font-size="14.00" fill="#000000">link :varchar</text>
<text text-anchor="start" x="406.4651" y="-277.3" font-family="Times,serif" font-size="14.00" fill="#000000">created_at :datetime</text>
<text text-anchor="start" x="406.4651" y="-263.3" font-family="Times,serif" font-size="14.00" fill="#000000">updated_at :datetime</text>
<text text-anchor="start" x="406.4651" y="-249.3" font-family="Times,serif" font-size="14.00" fill="#000000">rating :float</text>
<text text-anchor="start" x="406.4651" y="-235.3" font-family="Times,serif" font-size="14.00" fill="#000000">expansion_for :integer</text>
<text text-anchor="start" x="406.4651" y="-221.3" font-family="Times,serif" font-size="14.00" fill="#000000">id :INTEGER</text>
</g>
<!-- Rental -->
<g id="node4" class="node">
<title>Rental</title>
<path fill="none" stroke="#000000" d="M518.1824,-.5C518.1824,-.5 627.1931,-.5 627.1931,-.5 633.1931,-.5 639.1931,-6.5 639.1931,-12.5 639.1931,-12.5 639.1931,-158.5 639.1931,-158.5 639.1931,-164.5 633.1931,-170.5 627.1931,-170.5 627.1931,-170.5 518.1824,-170.5 518.1824,-170.5 512.1824,-170.5 506.1824,-164.5 506.1824,-158.5 506.1824,-158.5 506.1824,-12.5 506.1824,-12.5 506.1824,-6.5 512.1824,-.5 518.1824,-.5"/>
<text text-anchor="middle" x="572.6877" y="-155.3" font-family="Times,serif" font-size="14.00" fill="#000000">Rental</text>
<polyline fill="none" stroke="#000000" points="506.1824,-148.5 639.1931,-148.5 "/>
<text text-anchor="start" x="514.1824" y="-133.3" font-family="Times,serif" font-size="14.00" fill="#000000">is_vetoed :integer</text>
<text text-anchor="start" x="514.1824" y="-119.3" font-family="Times,serif" font-size="14.00" fill="#000000">name :varchar</text>
<text text-anchor="start" x="514.1824" y="-105.3" font-family="Times,serif" font-size="14.00" fill="#000000">start_time :date</text>
<text text-anchor="start" x="514.1824" y="-91.3" font-family="Times,serif" font-size="14.00" fill="#000000">end_time :date</text>
<text text-anchor="start" x="514.1824" y="-77.3" font-family="Times,serif" font-size="14.00" fill="#000000">game_id :integer</text>
<text text-anchor="start" x="514.1824" y="-63.3" font-family="Times,serif" font-size="14.00" fill="#000000">created_at :datetime</text>
<text text-anchor="start" x="514.1824" y="-49.3" font-family="Times,serif" font-size="14.00" fill="#000000">updated_at :datetime</text>
<text text-anchor="start" x="514.1824" y="-35.3" font-family="Times,serif" font-size="14.00" fill="#000000">user_id :integer</text>
<text text-anchor="start" x="514.1824" y="-21.3" font-family="Times,serif" font-size="14.00" fill="#000000">is_optional :integer</text>
<text text-anchor="start" x="514.1824" y="-7.3" font-family="Times,serif" font-size="14.00" fill="#000000">id :INTEGER</text>
</g>
<!-- Game&#45;&gt;Rental -->
<g id="edge1" class="edge">
<title>Game&#45;&gt;Rental</title>
<path fill="none" stroke="#3cc9fe" d="M523.5918,-206.7368C527.2037,-197.8178 530.8162,-188.8971 534.3509,-180.1685"/>
<ellipse fill="none" stroke="#3cc9fe" cx="522.0329" cy="-210.5865" rx="4" ry="4"/>
<polygon fill="#3cc9fe" stroke="#3cc9fe" points="534.3987,-180.0504 542.3232,-172.4707 536.2754,-175.416 538.1522,-170.7816 538.1522,-170.7816 538.1522,-170.7816 536.2754,-175.416 533.9812,-169.0925 534.3987,-180.0504 534.3987,-180.0504"/>
</g>
<!-- User -->
<g id="node5" class="node">
<title>User</title>
<path fill="none" stroke="#000000" d="M581.4099,-207.5C581.4099,-207.5 761.9656,-207.5 761.9656,-207.5 767.9656,-207.5 773.9656,-213.5 773.9656,-219.5 773.9656,-219.5 773.9656,-435.5 773.9656,-435.5 773.9656,-441.5 767.9656,-447.5 761.9656,-447.5 761.9656,-447.5 581.4099,-447.5 581.4099,-447.5 575.4099,-447.5 569.4099,-441.5 569.4099,-435.5 569.4099,-435.5 569.4099,-219.5 569.4099,-219.5 569.4099,-213.5 575.4099,-207.5 581.4099,-207.5"/>
<text text-anchor="middle" x="671.6877" y="-432.3" font-family="Times,serif" font-size="14.00" fill="#000000">User</text>
<polyline fill="none" stroke="#000000" points="569.4099,-425.5 773.9656,-425.5 "/>
<text text-anchor="start" x="577.4099" y="-410.3" font-family="Times,serif" font-size="14.00" fill="#000000">updated_at :datetime</text>
<text text-anchor="start" x="577.4099" y="-396.3" font-family="Times,serif" font-size="14.00" fill="#000000">email :varchar</text>
<text text-anchor="start" x="577.4099" y="-382.3" font-family="Times,serif" font-size="14.00" fill="#000000">encrypted_password :varchar</text>
<text text-anchor="start" x="577.4099" y="-368.3" font-family="Times,serif" font-size="14.00" fill="#000000">is_admin :integer</text>
<text text-anchor="start" x="577.4099" y="-354.3" font-family="Times,serif" font-size="14.00" fill="#000000">reset_password_token :varchar</text>
<text text-anchor="start" x="577.4099" y="-340.3" font-family="Times,serif" font-size="14.00" fill="#000000">reset_password_sent_at :datetime</text>
<text text-anchor="start" x="577.4099" y="-326.3" font-family="Times,serif" font-size="14.00" fill="#000000">remember_created_at :datetime</text>
<text text-anchor="start" x="577.4099" y="-312.3" font-family="Times,serif" font-size="14.00" fill="#000000">name :varchar</text>
<text text-anchor="start" x="577.4099" y="-298.3" font-family="Times,serif" font-size="14.00" fill="#000000">sign_in_count :integer</text>
<text text-anchor="start" x="577.4099" y="-284.3" font-family="Times,serif" font-size="14.00" fill="#000000">current_sign_in_at :datetime</text>
<text text-anchor="start" x="577.4099" y="-270.3" font-family="Times,serif" font-size="14.00" fill="#000000">last_sign_in_at :datetime</text>
<text text-anchor="start" x="577.4099" y="-256.3" font-family="Times,serif" font-size="14.00" fill="#000000">current_sign_in_ip :varchar</text>
<text text-anchor="start" x="577.4099" y="-242.3" font-family="Times,serif" font-size="14.00" fill="#000000">last_sign_in_ip :varchar</text>
<text text-anchor="start" x="577.4099" y="-228.3" font-family="Times,serif" font-size="14.00" fill="#000000">created_at :datetime</text>
<text text-anchor="start" x="577.4099" y="-214.3" font-family="Times,serif" font-size="14.00" fill="#000000">id :INTEGER</text>
</g>
<!-- User&#45;&gt;Rental -->
<g id="edge2" class="edge">
<title>User&#45;&gt;Rental</title>
<path fill="none" stroke="#e1c85b" d="M619.4036,-199.6943C616.7052,-193.0983 614.0179,-186.5294 611.3739,-180.0663"/>
<ellipse fill="none" stroke="#e1c85b" cx="620.9632" cy="-203.5068" rx="4" ry="4"/>
<polygon fill="#e1c85b" stroke="#e1c85b" points="611.3213,-179.9373 611.6998,-168.978 609.4281,-175.3096 607.5349,-170.6819 607.5349,-170.6819 607.5349,-170.6819 609.4281,-175.3096 603.3699,-172.3857 611.3213,-179.9373 611.3213,-179.9373"/>
</g>
</g>
</svg>
