<?xml version="1.0" encoding="UTF-8" standalone="no"?>
<!DOCTYPE svg PUBLIC "-//W3C//DTD SVG 1.1//EN"
 "http://www.w3.org/Graphics/SVG/1.1/DTD/svg11.dtd">
<!-- Generated by graphviz version 2.40.1 (20161225.0304)
 -->
<!-- Title: models_diagram Pages: 1 -->
<svg width="541pt" height="153pt"
 viewBox="0.00 0.00 540.69 153.00" xmlns="http://www.w3.org/2000/svg" xmlns:xlink="http://www.w3.org/1999/xlink">
<g id="graph0" class="graph" transform="scale(1 1) rotate(0) translate(4 149)">
<title>models_diagram</title>
<polygon fill="transparent" stroke="transparent" points="-4,4 -4,-149 536.6877,-149 536.6877,4 -4,4"/>
<!-- _diagram_info -->
<g id="node1" class="node">
<title>_diagram_info</title>
<text text-anchor="start" x="8" y="-130.6" font-family="Times,serif" font-size="13.00" fill="#000000">Models diagram</text>
<text text-anchor="start" x="8" y="-117.6" font-family="Times,serif" font-size="13.00" fill="#000000">Date: Jan 09 2017 &#45; 01:52</text>
<text text-anchor="start" x="8" y="-104.6" font-family="Times,serif" font-size="13.00" fill="#000000">Migration version: 20170109000655</text>
<text text-anchor="start" x="8" y="-91.6" font-family="Times,serif" font-size="13.00" fill="#000000">Generated by RailRoady 1.5.2</text>
<text text-anchor="start" x="8" y="-78.6" font-family="Times,serif" font-size="13.00" fill="#000000">http://railroady.prestonlee.com</text>
</g>
<!-- ApplicationRecord -->
<g id="node2" class="node">
<title>ApplicationRecord</title>
<ellipse fill="none" stroke="#000000" cx="302.6877" cy="-108.5" rx="77.2916" ry="18"/>
<text text-anchor="middle" x="302.6877" y="-104.3" font-family="Times,serif" font-size="14.00" fill="#000000">ApplicationRecord</text>
</g>
<!-- Game -->
<g id="node3" class="node">
<title>Game</title>
<ellipse fill="none" stroke="#000000" cx="429.6877" cy="-108.5" rx="31.4462" ry="18"/>
<text text-anchor="middle" x="429.6877" y="-104.3" font-family="Times,serif" font-size="14.00" fill="#000000">Game</text>
</g>
<!-- Rental -->
<g id="node4" class="node">
<title>Rental</title>
<ellipse fill="none" stroke="#000000" cx="467.6877" cy="-18" rx="33.3839" ry="18"/>
<text text-anchor="middle" x="467.6877" y="-13.8" font-family="Times,serif" font-size="14.00" fill="#000000">Rental</text>
</g>
<!-- Game&#45;&gt;Rental -->
<g id="edge1" class="edge">
<title>Game&#45;&gt;Rental</title>
<path fill="none" stroke="#eee911" d="M440.3418,-83.1266C445.2816,-71.362 451.1608,-57.3603 456.1997,-45.3596"/>
<ellipse fill="none" stroke="#eee911" cx="438.7439" cy="-86.932" rx="4" ry="4"/>
<polygon fill="#eee911" stroke="#eee911" points="456.3242,-45.0629 464.3448,-37.5849 458.26,-40.4528 460.1958,-35.8427 460.1958,-35.8427 460.1958,-35.8427 458.26,-40.4528 456.0467,-34.1006 456.3242,-45.0629 456.3242,-45.0629"/>
</g>
<!-- User -->
<g id="node5" class="node">
<title>User</title>
<ellipse fill="none" stroke="#000000" cx="505.6877" cy="-108.5" rx="27" ry="18"/>
<text text-anchor="middle" x="505.6877" y="-104.3" font-family="Times,serif" font-size="14.00" fill="#000000">User</text>
</g>
<!-- User&#45;&gt;Rental -->
<g id="edge2" class="edge">
<title>User&#45;&gt;Rental</title>
<path fill="none" stroke="#5f73fd" d="M495.1961,-83.5132C490.1683,-71.5392 484.1388,-57.1795 479.0078,-44.9595"/>
<ellipse fill="none" stroke="#5f73fd" cx="496.8123" cy="-87.3626" rx="4" ry="4"/>
<polygon fill="#5f73fd" stroke="#5f73fd" points="478.9932,-44.9247 479.2708,-33.9623 477.0575,-40.3146 475.1217,-35.7045 475.1217,-35.7045 475.1217,-35.7045 477.0575,-40.3146 470.9726,-37.4467 478.9932,-44.9247 478.9932,-44.9247"/>
</g>
</g>
</svg>
